<svg viewBox="0 0 120 120" xmlns="http://www.w3.org/2000/svg">
  <defs>
    <linearGradient id="lionGrad" x1="0%" y1="0%" x2="100%" y2="100%">
      <stop offset="0%" style="stop-color:#006b3f;stop-opacity:1" />
      <stop offset="100%" style="stop-color:#FFCB2F;stop-opacity:1" />
    </linearGradient>
  </defs>

  <!-- Mane - 5 geometric triangles -->
  <polygon points="60,8 55,28 65,28" fill="#006b3f"/>
  <polygon points="42,16 32,36 52,32" fill="#006b3f"/>
  <polygon points="78,16 68,32 88,36" fill="#006b3f"/>
  <polygon points="30,28 18,45 38,44" fill="#006b3f"/>
  <polygon points="90,28 82,44 102,45" fill="#006b3f"/>

  <!-- Head circle with gradient -->
  <circle cx="60" cy="58" r="32" fill="url(#lionGrad)"/>

  <!-- Eyes - gem shape (white) + pupils (navy) -->
  <path d="M 48 52 L 44 58 L 48 64 L 52 58 Z" fill="white" stroke="#006b3f" stroke-width="1"/>
  <circle cx="48" cy="58" r="3.5" fill="#002D72"/>
  <circle cx="48.5" cy="56.5" r="1.2" fill="white"/>

  <path d="M 72 52 L 68 58 L 72 64 L 76 58 Z" fill="white" stroke="#006b3f" stroke-width="1"/>
  <circle cx="72" cy="58" r="3.5" fill="#002D72"/>
  <circle cx="72.5" cy="56.5" r="1.2" fill="white"/>

  <!-- Nose - small triangle, gold -->
  <path d="M 60 64 L 57 70 L 63 70 Z" fill="#FFCB2F" stroke="#006b3f" stroke-width="0.5"/>

  <!-- Mouth - subtle smile curve -->
  <path d="M 54 74 Q 60 77 66 74" stroke="#002D72" stroke-width="2.5" fill="none" stroke-linecap="round"/>

  <!-- Ears - circles on sides -->
  <circle cx="36" cy="38" r="7" fill="#006b3f" stroke="#FFCB2F" stroke-width="1.5"/>
  <circle cx="84" cy="38" r="7" fill="#006b3f" stroke="#FFCB2F" stroke-width="1.5"/>

  <!-- Inner ear detail -->
  <circle cx="36" cy="38" r="4" fill="#FFCB2F" opacity="0.7"/>
  <circle cx="84" cy="38" r="4" fill="#FFCB2F" opacity="0.7"/>
</svg>
